HIERARCHY
ROOT Hips
{
 OFFSET 0.000000 0.000000 0.000000
 CHANNELS 6 Xposition Yposition Zposition Yrotation Xrotation Zrotation
 JOINT Chest
 {
  OFFSET 0.000000 10.080317 -0.001081
  CHANNELS 3 Yrotation Xrotation Zrotation
  JOINT Chest2
  {
   OFFSET 0.000000 11.096852 0.001963
   CHANNELS 3 Yrotation Xrotation Zrotation
   JOINT Chest3
   {
    OFFSET 0.000000 10.026525 0.000000
    CHANNELS 3 Yrotation Xrotation Zrotation
    JOINT Chest4
    {
     OFFSET 0.000000 10.026525 0.000000
     CHANNELS 3 Yrotation Xrotation Zrotation
     JOINT Neck
     {
      OFFSET 0.000000 14.108171 0.000000
      CHANNELS 3 Yrotation Xrotation Zrotation
      JOINT Head
      {
       OFFSET 0.000000 9.333493 0.004668
       CHANNELS 3 Yrotation Xrotation Zrotation
       End Site
       {
        OFFSET 0.000000 17.851786 0.002438
       }
      }
     }
     JOINT RightCollar
     {
      OFFSET -3.071622 7.873185 0.000000
      CHANNELS 3 Yrotation Xrotation Zrotation
      JOINT RightShoulder
      {
       OFFSET -14.378659 0.000000 0.000000
       CHANNELS 3 Yrotation Xrotation Zrotation
       JOINT RightElbow
       {
        OFFSET -30.778728 0.000000 0.000000
        CHANNELS 3 Yrotation Xrotation Zrotation
        JOINT RightWrist
        {
         OFFSET -25.164217 0.000000 0.000000
         CHANNELS 3 Yrotation Xrotation Zrotation
         End Site
         {
          OFFSET -18.796788 0.000000 0.000000
         }
        }
       }
      }
     }
     JOINT LeftCollar
     {
      OFFSET 3.071622 7.873185 0.000000
      CHANNELS 3 Yrotation Xrotation Zrotation
      JOINT LeftShoulder
      {
       OFFSET 14.378659 0.000000 0.000000
       CHANNELS 3 Yrotation Xrotation Zrotation
       JOINT LeftElbow
       {
        OFFSET 30.778728 0.000000 0.000000
        CHANNELS 3 Yrotation Xrotation Zrotation
        JOINT LeftWrist
        {
         OFFSET 25.164217 0.000000 0.000000
         CHANNELS 3 Yrotation Xrotation Zrotation
         End Site
         {
          OFFSET 18.796788 0.000000 0.000000
         }
        }
       }
      }
     }
    }
   }
  }
 }
 JOINT RightHip
 {
  OFFSET -8.194923 0.005295 0.000540
  CHANNELS 3 Yrotation Xrotation Zrotation
  JOINT RightKnee
  {
   OFFSET 0.000000 -42.473320 -0.000511
   CHANNELS 3 Yrotation Xrotation Zrotation
   JOINT RightAnkle
   {
    OFFSET 0.000000 -41.474259 -0.000865
    CHANNELS 3 Yrotation Xrotation Zrotation
    JOINT RightToe
    {
     OFFSET 0.000000 -7.354994 16.712725
     CHANNELS 3 Yrotation Xrotation Zrotation
     End Site
     {
      OFFSET 0.000000 -1.553903 6.764158
     }
    }
   }
  }
 }
 JOINT LeftHip
 {
  OFFSET 8.194923 0.005295 0.000540
  CHANNELS 3 Yrotation Xrotation Zrotation
  JOINT LeftKnee
  {
   OFFSET 0.000000 -42.473320 -0.000511
   CHANNELS 3 Yrotation Xrotation Zrotation
   JOINT LeftAnkle
   {
    OFFSET 0.000000 -41.474259 -0.000865
    CHANNELS 3 Yrotation Xrotation Zrotation
    JOINT LeftToe
    {
     OFFSET 0.000000 -7.354994 16.712725
     CHANNELS 3 Yrotation Xrotation Zrotation
     End Site
     {
      OFFSET 0.000000 -1.553903 6.764158
     }
    }
   }
  }
 }
}
MOTION
Frames: 5
Frame Time: 0.016667
-362.834569 90.890315 -78.482404 165.043671 0.708972 -0.642856 4.929395 5.247160 -1.240639 2.181832 2.312659 -0.688767 2.181832 2.312659 -0.688767 1.638762 1.732064 -0.524774 9.142369 16.183250 -0.884663 17.300310 -5.482444 -4.882122 -4.813563 -5.008370 11.152759 15.333069 -17.171573 65.049790 29.750430 20.478156 21.506633 -12.687455 9.639482 -2.007544 -6.631088 -3.453394 -2.185109 0.752799 -17.191365 -63.724002 -25.880723 15.261407 -23.394541 11.070299 10.345618 15.167455 -23.644366 14.329313 -10.060177 -14.893472 6.196620 -1.449046 -13.529130 -7.245173 12.288081 -0.547330 4.307552 -8.494699 19.589790 -20.769376 3.454955 12.740298 22.240646 -1.316788 4.460544 -0.977518 2.910281 0.023532 -0.503094 -0.146807
-362.104440 90.758774 -77.156142 164.710177 0.410999 -0.817832 4.968836 5.417561 -0.955827 2.185677 2.383511 -0.583254 2.185677 2.383511 -0.583254 1.641298 1.785577 -0.445913 8.950491 16.455993 -0.812622 16.890273 -5.014158 -4.645154 -5.422968 -4.168002 11.088841 14.266546 -15.786716 65.940356 28.991515 20.837311 21.365609 -12.958608 9.788523 -1.960261 -6.482892 -2.846492 -2.372920 0.957015 -16.732586 -64.933429 -23.962050 15.286481 -22.082073 10.418421 10.129908 15.368746 -22.541873 14.535279 -9.039473 -14.994684 5.829401 -1.096132 -14.431424 -8.623709 13.008744 -0.488069 4.599589 -8.179455 18.832110 -21.483056 4.356284 13.243306 22.212868 -0.907874 4.463060 0.381720 2.258370 0.020172 -0.722755 0.017841
-361.447639 90.416422 -75.854214 164.512937 0.222024 -0.745300 4.945627 5.459745 -0.896933 2.147791 2.434428 -0.454690 2.147791 2.434428 -0.454690 1.612414 1.824251 -0.349531 8.794545 16.752267 -0.715945 16.537801 -4.500520 -4.373651 -5.910252 -3.389019 10.942209 12.947463 -14.238709 66.743408 28.139212 20.521630 21.012250 -13.088301 9.793033 -1.865325 -6.361727 -2.265966 -2.569510 1.146589 -16.210391 -66.354433 -22.268986 15.483960 -20.553039 9.752672 9.747875 15.853339 -21.358769 14.600533 -8.012015 -15.293122 5.438977 -0.981483 -15.300911 -9.556838 13.298031 -0.287124 4.389480 -7.508119 17.987886 -22.192498 5.021395 13.496265 22.223092 -0.648130 4.551311 1.454018 1.493778 0.021936 -0.693520 0.254103
-360.899824 90.147141 -74.819921 164.579679 -0.031976 -0.766358 4.751508 5.521404 -0.711625 2.055288 2.462047 -0.327148 2.055288 2.462047 -0.327148 1.542548 1.845461 -0.253611 8.700411 17.063103 -0.575942 16.285461 -3.957907 -4.043098 -6.237246 -2.739698 10.785020 11.619090 -12.501746 67.448588 27.069466 19.722430 20.369779 -13.067791 9.604547 -1.752035 -6.198079 -1.772576 -2.750347 1.125672 -15.465367 -67.841659 -20.758769 15.278285 -19.012859 9.160835 9.245781 16.518136 -20.655779 14.672548 -7.040313 -15.312601 5.343857 -0.991699 -16.165047 -10.815296 13.480372 -0.201310 4.319884 -6.730057 16.900485 -22.662381 5.812435 13.246359 22.066912 -0.545002 4.356703 2.526052 0.568520 0.014954 -0.651695 0.494419
-360.501642 90.012453 -73.801702 164.781366 -0.280074 -0.801531 4.485919 5.539727 -0.466628 1.931118 2.463148 -0.210468 1.931118 2.463148 -0.210468 1.448964 1.846719 -0.165616 8.641493 17.381555 -0.427129 16.096672 -3.397528 -3.708835 -6.544179 -2.212993 10.678090 10.308833 -10.742804 68.052080 25.776514 18.808164 19.442761 -12.984219 9.317278 -1.683520 -5.949540 -1.350051 -2.984404 0.796927 -14.642462 -69.319829 -19.203744 14.834301 -17.468714 8.429858 8.680163 17.173030 -20.345128 14.496195 -6.442324 -15.083145 5.765704 -0.912301 -16.908183 -11.948923 13.550752 -0.135772 4.040886 -5.865818 15.598142 -22.857622 6.591611 11.450955 21.809372 -0.906929 4.273312 3.497928 -0.587108 -0.009019 -0.657792 0.678618
